<svg xmlns="http://www.w3.org/2000/svg" xmlns:xlink="http://www.w3.org/1999/xlink" width="559" zoomAndPan="magnify" viewBox="0 0 419.25 297.749993" height="396" preserveAspectRatio="xMidYMid meet" version="1.0"><defs><clipPath id="5584606c09"><path d="M 0 0.140625 L 418.5 0.140625 L 418.5 297.359375 L 0 297.359375 Z M 0 0.140625 " clip-rule="nonzero"/></clipPath><clipPath id="40150cdade"><path d="M 0 0.140625 L 418.5 0.140625 L 418.5 297.359375 L 0 297.359375 Z M 0 0.140625 " clip-rule="nonzero"/></clipPath><clipPath id="6b8b8ada47"><path d="M 99.4375 -238.199219 L 577.792969 78.101562 L 298.652344 500.253906 L -179.703125 183.949219 Z M 99.4375 -238.199219 " clip-rule="nonzero"/></clipPath></defs><g clip-path="url(#5584606c09)"><path fill="#ffffff" d="M 0 0.140625 L 418.5 0.140625 L 418.5 297.359375 L 0 297.359375 Z M 0 0.140625 " fill-opacity="1" fill-rule="nonzero"/><path fill="#ffffff" d="M 0 0.140625 L 418.5 0.140625 L 418.5 297.359375 L 0 297.359375 Z M 0 0.140625 " fill-opacity="1" fill-rule="nonzero"/></g><g clip-path="url(#40150cdade)"><g clip-path="url(#6b8b8ada47)"><path fill="#03989e" d="M 111.308594 -230.351562 L 565.925781 70.253906 C 569.074219 72.335938 571.265625 75.582031 572.019531 79.277344 C 572.773438 82.976562 572.027344 86.820312 569.949219 89.96875 L 306.496094 488.390625 C 304.417969 491.535156 301.171875 493.726562 297.472656 494.480469 C 293.777344 495.234375 289.933594 494.488281 286.785156 492.40625 L -167.832031 191.800781 C -170.980469 189.71875 -173.171875 186.472656 -173.925781 182.777344 C -174.679688 179.078125 -173.933594 175.234375 -171.855469 172.085938 L 91.59375 -226.335938 C 93.675781 -229.480469 96.921875 -231.671875 100.617188 -232.425781 C 104.316406 -233.179688 108.160156 -232.433594 111.308594 -230.351562 " fill-opacity="1" fill-rule="nonzero"/></g></g></svg>