<svg xmlns="http://www.w3.org/2000/svg" xmlns:xlink="http://www.w3.org/1999/xlink" width="559" zoomAndPan="magnify" viewBox="0 0 419.25 297.75" height="396" preserveAspectRatio="xMidYMid meet" version="1.0"><defs><clipPath id="447fcbab53"><path d="M 0 0.140625 L 418.5 0.140625 L 418.5 297.359375 L 0 297.359375 Z M 0 0.140625 " clip-rule="nonzero"/></clipPath></defs><g clip-path="url(#447fcbab53)"><path fill="#ffffff" d="M 0 0.140625 L 421.246094 0.140625 L 421.246094 305.957031 L 0 305.957031 Z M 0 0.140625 " fill-opacity="1" fill-rule="nonzero"/><path fill="#ffffff" d="M 0 0.140625 L 418.996094 0.140625 L 418.996094 297.710938 L 0 297.710938 Z M 0 0.140625 " fill-opacity="1" fill-rule="nonzero"/><path fill="#ffffff" d="M 0 0.140625 L 418.996094 0.140625 L 418.996094 297.710938 L 0 297.710938 Z M 0 0.140625 " fill-opacity="1" fill-rule="nonzero"/><path fill="#a6a6a6" d="M -5.601562 -19.539062 L 408.898438 -19.539062 C 412.675781 -19.539062 416.296875 -18.039062 418.96875 -15.367188 C 421.640625 -12.699219 423.140625 -9.074219 423.140625 -5.296875 L 423.140625 351.484375 C 423.140625 355.261719 421.640625 358.886719 418.96875 361.554688 C 416.296875 364.226562 412.675781 365.726562 408.898438 365.726562 L -5.601562 365.726562 C -9.378906 365.726562 -13 364.226562 -15.671875 361.554688 C -18.34375 358.886719 -19.84375 355.261719 -19.84375 351.484375 L -19.84375 -5.296875 C -19.84375 -9.074219 -18.34375 -12.699219 -15.671875 -15.367188 C -13 -18.039062 -9.378906 -19.539062 -5.601562 -19.539062 " fill-opacity="1" fill-rule="nonzero"/></g></svg>