<svg xmlns="http://www.w3.org/2000/svg" xmlns:xlink="http://www.w3.org/1999/xlink" width="559" zoomAndPan="magnify" viewBox="0 0 419.25 297.75" height="396" preserveAspectRatio="xMidYMid meet" version="1.0"><defs><clipPath id="2fa3bb694b"><path d="M 0 0.140625 L 418.5 0.140625 L 418.5 297.359375 L 0 297.359375 Z M 0 0.140625 " clip-rule="nonzero"/></clipPath><clipPath id="e6fdd0752c"><path d="M 59.359375 0.140625 L 418.5 0.140625 L 418.5 297.359375 L 59.359375 297.359375 Z M 59.359375 0.140625 " clip-rule="nonzero"/></clipPath><clipPath id="e3eba91150"><path d="M 0 0.140625 L 223 0.140625 L 223 297.359375 L 0 297.359375 Z M 0 0.140625 " clip-rule="nonzero"/></clipPath><clipPath id="b05a19e655"><path d="M -75.734375 -206.839844 L 227.5 -6.328125 L -18.070312 365.054688 L -321.304688 164.546875 Z M -75.734375 -206.839844 " clip-rule="nonzero"/></clipPath><clipPath id="f4a6b5852b"><path d="M 8 0.140625 L 408 0.140625 L 408 297.359375 L 8 297.359375 Z M 8 0.140625 " clip-rule="nonzero"/></clipPath><clipPath id="0a5a4e5b4a"><path d="M 8.808594 317.824219 L 279.496094 -88.167969 L 407.964844 -2.515625 L 137.28125 403.480469 Z M 8.808594 317.824219 " clip-rule="nonzero"/></clipPath></defs><g clip-path="url(#2fa3bb694b)"><path fill="#ffffff" d="M 0 0.140625 L 421.246094 0.140625 L 421.246094 305.957031 L 0 305.957031 Z M 0 0.140625 " fill-opacity="1" fill-rule="nonzero"/><path fill="#ffffff" d="M 0 0.140625 L 418.996094 0.140625 L 418.996094 297.710938 L 0 297.710938 Z M 0 0.140625 " fill-opacity="1" fill-rule="nonzero"/><path fill="#ffffff" d="M 0 0.140625 L 418.996094 0.140625 L 418.996094 297.710938 L 0 297.710938 Z M 0 0.140625 " fill-opacity="1" fill-rule="nonzero"/></g><g clip-path="url(#e6fdd0752c)"><path fill="#ffbd59" d="M 73.601562 -11.230469 L 488.097656 -11.230469 C 491.875 -11.230469 495.5 -9.730469 498.171875 -7.0625 C 500.839844 -4.390625 502.34375 -0.765625 502.34375 3.011719 L 502.34375 359.792969 C 502.34375 363.570312 500.839844 367.191406 498.171875 369.863281 C 495.5 372.535156 491.875 374.035156 488.097656 374.035156 L 73.601562 374.035156 C 69.824219 374.035156 66.203125 372.535156 63.53125 369.863281 C 60.859375 367.191406 59.359375 363.570312 59.359375 359.792969 L 59.359375 3.011719 C 59.359375 -0.765625 60.859375 -4.390625 63.53125 -7.0625 C 66.203125 -9.730469 69.824219 -11.230469 73.601562 -11.230469 " fill-opacity="1" fill-rule="nonzero"/></g><g clip-path="url(#e3eba91150)"><g clip-path="url(#b05a19e655)"><path fill="#03989e" d="M -63.855469 -198.984375 L 215.621094 -14.183594 C 218.773438 -12.101562 220.964844 -8.851562 221.71875 -5.148438 C 222.472656 -1.445312 221.726562 2.40625 219.640625 5.558594 L -10.210938 353.167969 C -12.292969 356.320312 -15.546875 358.515625 -19.246094 359.273438 C -22.949219 360.027344 -26.796875 359.28125 -29.949219 357.199219 L -309.425781 172.398438 C -312.574219 170.316406 -314.769531 167.066406 -315.523438 163.363281 C -316.277344 159.664062 -315.527344 155.8125 -313.445312 152.660156 L -83.59375 -194.949219 C -81.507812 -198.101562 -78.257812 -200.300781 -74.554688 -201.054688 C -70.855469 -201.8125 -67.003906 -201.066406 -63.855469 -198.984375 " fill-opacity="1" fill-rule="nonzero"/></g></g><g clip-path="url(#f4a6b5852b)"><g clip-path="url(#0a5a4e5b4a)"><path fill="#a6a6a6" d="M 8.8125 317.816406 L 279.488281 -88.160156 L 407.960938 -2.507812 L 137.285156 403.472656 L 8.8125 317.816406 " fill-opacity="1" fill-rule="nonzero"/></g></g></svg>