<svg xmlns="http://www.w3.org/2000/svg" xmlns:xlink="http://www.w3.org/1999/xlink" width="559" zoomAndPan="magnify" viewBox="0 0 419.25 297.75" height="396" preserveAspectRatio="xMidYMid meet" version="1.0"><defs><clipPath id="13c62b6aab"><path d="M 0 0.140625 L 418.5 0.140625 L 418.5 297.359375 L 0 297.359375 Z M 0 0.140625 " clip-rule="nonzero"/></clipPath></defs><g clip-path="url(#13c62b6aab)"><path fill="#ffffff" d="M 0 0.140625 L 421.246094 0.140625 L 421.246094 305.957031 L 0 305.957031 Z M 0 0.140625 " fill-opacity="1" fill-rule="nonzero"/><path fill="#ffffff" d="M 0 0.140625 L 418.996094 0.140625 L 418.996094 297.710938 L 0 297.710938 Z M 0 0.140625 " fill-opacity="1" fill-rule="nonzero"/><path fill="#ffffff" d="M 0 0.140625 L 418.996094 0.140625 L 418.996094 297.710938 L 0 297.710938 Z M 0 0.140625 " fill-opacity="1" fill-rule="nonzero"/><path fill="#ffbd59" d="M 2.414062 -12.894531 L 416.910156 -12.894531 C 420.6875 -12.894531 424.3125 -11.394531 426.980469 -8.722656 C 429.652344 -6.050781 431.152344 -2.429688 431.152344 1.347656 L 431.152344 358.128906 C 431.152344 361.910156 429.652344 365.53125 426.980469 368.203125 C 424.3125 370.875 420.6875 372.375 416.910156 372.375 L 2.414062 372.375 C -1.363281 372.375 -4.988281 370.875 -7.65625 368.203125 C -10.328125 365.53125 -11.828125 361.910156 -11.828125 358.128906 L -11.828125 1.347656 C -11.828125 -2.429688 -10.328125 -6.050781 -7.65625 -8.722656 C -4.988281 -11.394531 -1.363281 -12.894531 2.414062 -12.894531 " fill-opacity="1" fill-rule="nonzero"/></g></svg>